# xmcd
#
# Track frame offsets:
#	150
#	15487
#	49012
#	73662
#	88285
#	111900
#
# Disc length: 1735 seconds
#
# Revision: 1
# Processed by: cddbd v1.5.2PL0 Copyright (c) Steve Scherf et al.
# Submitted via: EZCDAudioConverter 4.0.5.1
#
DISCID=4b06c506
DTITLE=Mo-Do - Eins, Zwei, Polizei [CD Single)
DYEAR=1994
DGENRE=Dance
TTITLE0=Eins, Zwei, Polizei (Radio Edit)
TTITLE1=Eins, Zwei, Polizei (Extended RMX)
TTITLE2=Eins, Zwei, Polizei (Polizei Mix)
TTITLE3=Eins, Zwei, Polizei (Original Radio Mix)
TTITLE4=Eins, Zwei, Polizei (Gendarmerie Mix)
TTITLE5=Eins, Zwei, Polizei (Einstein Dr. D.J. Konzept)
EXTD=
EXTT0=
EXTT1=
EXTT2=
EXTT3=
EXTT4=
EXTT5=
PLAYORDER=
